<svg xmlns="http://www.w3.org/2000/svg" viewBox="0 0 235.3 68.78"><defs><style>.cls-1{font-size:23px;font-family:OCRB10PitchBT-Regular, "OCR-B 10 BT";}.cls-1,.cls-3{fill:#3c3e3e;}.cls-1,.cls-2{stroke:#3c3e3e;}.cls-2{fill:none;stroke-miterlimit:10;stroke-width:5px;}</style></defs><title>Asset 4</title><g id="Layer_2" data-name="Layer 2"><g id="Layer_1-2" data-name="Layer 1"><text class="cls-1" transform="translate(18.07 29.01)">Emiliatorius’3</text><polyline class="cls-2" points="87.27 54.67 2.5 54.67 2.5 2.5 232.8 2.5 232.8 54.67 145.86 54.67 143.95 54.67"/><path class="cls-3" d="M112.74,48.58h15.5a.5.5,0,0,0,.5-.5.5.5,0,0,0-.5-.51h-15.5a.5.5,0,0,0-.5.51A.5.5,0,0,0,112.74,48.58Z"/><path class="cls-3" d="M112.74,52.25h15.5a.5.5,0,0,0,0-1h-15.5a.5.5,0,0,0,0,1Z"/><path class="cls-3" d="M116.88,54.92h-6a.51.51,0,0,0-.51.51.5.5,0,0,0,.51.5h6a.5.5,0,0,0,.51-.5A.51.51,0,0,0,116.88,54.92Z"/><path class="cls-3" d="M103.88,55.43a.5.5,0,0,0,.5.5h3.85a.5.5,0,0,0,.5-.5.5.5,0,0,0-.5-.51h-3.85A.51.51,0,0,0,103.88,55.43Z"/><path class="cls-3" d="M105.34,53.45a.51.51,0,1,0,0-1c-.28,0-.62-.14-.62-.82v-.71a1.37,1.37,0,0,0-.28-.89,1.33,1.33,0,0,0,.28-.89v-.71c0-.68.34-.82.62-.82a.5.5,0,0,0,.51-.5.51.51,0,0,0-.51-.51,1.64,1.64,0,0,0-1.63,1.83v.71c0,.26,0,.28-.28.37l-.16.06a.52.52,0,0,0-.25.67.52.52,0,0,0,.21.23l.2.09c.24.08.28.1.28.36v.71A1.64,1.64,0,0,0,105.34,53.45Z"/><path class="cls-3" d="M108.58,51.54c0,.68-.33.82-.61.82a.51.51,0,1,0,0,1,1.63,1.63,0,0,0,1.62-1.83v-.7c0-.27,0-.29.28-.37l.16-.07h0a.47.47,0,0,0,.22-.24.5.5,0,0,0-.25-.67l-.16-.06c-.23-.08-.28-.1-.28-.37v-.71A1.63,1.63,0,0,0,108,46.52a.5.5,0,1,0,0,1c.28,0,.61.15.61.82v.71a1.28,1.28,0,0,0,.29.89,1.32,1.32,0,0,0-.29.9v.7Z"/><path class="cls-3" d="M116.55,58.6H104.32a.5.5,0,1,0,0,1h12.23a.5.5,0,0,0,0-1Z"/><path class="cls-3" d="M116.48,62.27H104.25a.51.51,0,0,0,0,1h12.23a.51.51,0,1,0,0-1Z"/><path class="cls-3" d="M127.57,42.3A1.58,1.58,0,1,0,126,40.72,1.58,1.58,0,0,0,127.57,42.3Zm0-2.14a.56.56,0,0,1,.56.56.57.57,0,1,1-1.13,0A.56.56,0,0,1,127.57,40.16Z"/><path class="cls-3" d="M123,42.3a1.58,1.58,0,1,0,0-3.15,1.58,1.58,0,0,0,0,3.15Zm0-2.14a.57.57,0,0,1,.57.56.57.57,0,1,1-1.14,0A.57.57,0,0,1,123,40.16Z"/><path class="cls-3" d="M118.46,42.3a1.58,1.58,0,1,0-1.58-1.58A1.57,1.57,0,0,0,118.46,42.3Zm0-2.14a.56.56,0,0,1,.56.56.57.57,0,1,1-1.13,0A.56.56,0,0,1,118.46,40.16Z"/><path class="cls-3" d="M129,37.06h-26.4A3.9,3.9,0,0,0,98.67,41V64.89a3.9,3.9,0,0,0,3.9,3.89H129a3.9,3.9,0,0,0,3.9-3.89V41a3.9,3.9,0,0,0-3.9-3.89Zm0,30.71h-26.4a2.88,2.88,0,0,1-2.89-2.88V44.47h7.42a.5.5,0,0,0,0-1H99.68V41a2.88,2.88,0,0,1,2.89-2.88H129A2.89,2.89,0,0,1,131.86,41v2.52H109.41a.5.5,0,1,0,0,1h22.45V64.89A2.89,2.89,0,0,1,129,67.77Z"/><path class="cls-3" d="M128.64,58.08h-.14c0-.1-.07-.19-.11-.29l.09-.09a1,1,0,0,0,.3-.73,1,1,0,0,0-.3-.72l-1-1a1,1,0,0,0-.72-.3,1,1,0,0,0-.73.3l-.09.1-.29-.12v-.13a1,1,0,0,0-1-1h-1.38a1,1,0,0,0-1,1v.16l-.26.11-.12-.12a1,1,0,0,0-.72-.3h0a1.07,1.07,0,0,0-.72.3l-1,1a1,1,0,0,0-.31.72,1,1,0,0,0,.3.73l.15.14a2.34,2.34,0,0,0-.09.24h-.21a1,1,0,0,0-1,1v1.38a1,1,0,0,0,1,1h.23l.09.21-.17.17a1,1,0,0,0,0,1.45l1,1a1,1,0,0,0,.72.3h0a1,1,0,0,0,.72-.3l.17-.17.21.09v.24a1,1,0,0,0,1,1h1.38a1,1,0,0,0,1-1v-.21l.24-.09.14.14a1,1,0,0,0,.73.3,1,1,0,0,0,.72-.3l1-1a1.06,1.06,0,0,0,.3-.73,1,1,0,0,0-.3-.72l-.12-.12.12-.26h.16a1,1,0,0,0,1-1V59.1a1,1,0,0,0-1-1Zm0,2.4s0,0,0,0h-.52a.5.5,0,0,0-.49.36,4.22,4.22,0,0,1-.32.76.5.5,0,0,0,.08.6l.38.38v0l-1,1h0l-.4-.4a.5.5,0,0,0-.59-.09,3.91,3.91,0,0,1-.75.3.5.5,0,0,0-.37.49v.57s0,0,0,0h-1.38s0,0,0,0v-.6a.5.5,0,0,0-.36-.48,3.78,3.78,0,0,1-.72-.3.5.5,0,0,0-.24-.06.54.54,0,0,0-.36.14l-.42.43h0l-1-1s0,0,0,0l.42-.42a.5.5,0,0,0,.09-.6,3.23,3.23,0,0,1-.3-.72.5.5,0,0,0-.49-.36h-.59a0,0,0,0,1,0,0V59.1h.59a.51.51,0,0,0,.49-.37,3.59,3.59,0,0,1,.3-.74.52.52,0,0,0-.09-.6l-.4-.39s0,0,0,0h0l1-1h0l.37.37a.52.52,0,0,0,.61.09,3.64,3.64,0,0,1,.76-.33.5.5,0,0,0,.36-.48v-.52l0,0h1.38s0,0,0,0v.5a.5.5,0,0,0,.37.48,4.51,4.51,0,0,1,.79.32.5.5,0,0,0,.6-.08l.35-.35h0l1,1h0v0l-.35.35a.49.49,0,0,0-.09.59,3.36,3.36,0,0,1,.32.79.5.5,0,0,0,.49.37h.51v1.38Z"/><path class="cls-3" d="M124,57.16a2.64,2.64,0,1,0,2.64,2.63A2.64,2.64,0,0,0,124,57.16Zm0,4.26a1.63,1.63,0,1,1,1.63-1.63A1.63,1.63,0,0,1,124,61.42Z"/></g></g></svg>